<svg width="1317" height="273" viewBox="0 0 1317 273" fill="none" xmlns="http://www.w3.org/2000/svg">
<path d="M303.494 116H277.305V42.1226H303.71C311.141 42.1226 317.538 43.6016 322.901 46.5596C328.264 49.4935 332.388 53.7141 335.274 59.2212C338.184 64.7283 339.639 71.3177 339.639 78.9892C339.639 86.6847 338.184 93.2981 335.274 98.8293C332.388 104.36 328.24 108.605 322.829 111.563C317.442 114.521 310.997 116 303.494 116ZM292.924 102.617H302.844C307.462 102.617 311.346 101.799 314.496 100.164C317.67 98.5046 320.051 95.9434 321.638 92.4804C323.25 88.9934 324.055 84.4963 324.055 78.9892C324.055 73.5301 323.25 69.0691 321.638 65.6061C320.051 62.1431 317.682 59.5939 314.532 57.9586C311.382 56.3233 307.498 55.5057 302.88 55.5057H292.924V102.617ZM352.952 116V60.592H368.319V116H352.952ZM360.672 53.4495C358.387 53.4495 356.427 52.692 354.792 51.1769C353.181 49.6378 352.375 47.7981 352.375 45.6578C352.375 43.5415 353.181 41.7258 354.792 40.2108C356.427 38.6716 358.387 37.9021 360.672 37.9021C362.956 37.9021 364.904 38.6716 366.516 40.2108C368.151 41.7258 368.969 43.5415 368.969 45.6578C368.969 47.7981 368.151 49.6378 366.516 51.1769C364.904 52.692 362.956 53.4495 360.672 53.4495ZM382.661 116V60.592H397.306V70.3677H397.956C399.11 67.1212 401.034 64.56 403.727 62.6842C406.421 60.8084 409.643 59.8705 413.395 59.8705C417.195 59.8705 420.429 60.8204 423.099 62.7203C425.768 64.5961 427.548 67.1452 428.437 70.3677H429.015C430.145 67.1933 432.189 64.6562 435.147 62.7563C438.129 60.8325 441.652 59.8705 445.716 59.8705C450.887 59.8705 455.083 61.5178 458.306 64.8125C461.552 68.0831 463.176 72.7245 463.176 78.7367V116H447.845V81.7668C447.845 78.6886 447.027 76.3799 445.392 74.8408C443.756 73.3017 441.712 72.5321 439.259 72.5321C436.47 72.5321 434.293 73.4219 432.73 75.2015C431.167 76.9571 430.385 79.2777 430.385 82.1636V116H415.487V81.4421C415.487 78.7246 414.706 76.5603 413.142 74.949C411.603 73.3377 409.571 72.5321 407.046 72.5321C405.339 72.5321 403.8 72.965 402.429 73.8307C401.082 74.6724 400.012 75.8628 399.218 77.402C398.425 78.917 398.028 80.6966 398.028 82.7407V116H382.661ZM493.146 117.046C489.611 117.046 486.46 116.433 483.695 115.206C480.929 113.956 478.741 112.116 477.129 109.687C475.542 107.234 474.749 104.18 474.749 100.525C474.749 97.4465 475.314 94.8613 476.444 92.769C477.574 90.6768 479.113 88.9934 481.061 87.7188C483.009 86.4442 485.222 85.4823 487.699 84.833C490.2 84.1837 492.821 83.7267 495.563 83.4622C498.785 83.1255 501.382 82.8129 503.354 82.5243C505.326 82.2117 506.757 81.7548 507.647 81.1535C508.537 80.5523 508.982 79.6625 508.982 78.4841V78.2677C508.982 75.9831 508.26 74.2155 506.817 72.965C505.399 71.7145 503.378 71.0892 500.757 71.0892C497.992 71.0892 495.791 71.7024 494.156 72.9289C492.52 74.1313 491.438 75.6464 490.909 77.4741L476.696 76.3198C477.418 72.953 478.837 70.0431 480.953 67.5901C483.069 65.1131 485.799 63.2133 489.142 61.8906C492.508 60.5439 496.404 59.8705 500.829 59.8705C503.908 59.8705 506.853 60.2312 509.667 60.9527C512.505 61.6742 515.018 62.7924 517.206 64.3075C519.419 65.8225 521.162 67.7705 522.437 70.1513C523.712 72.5081 524.349 75.3338 524.349 78.6284V116H509.775V108.316H509.343C508.453 110.048 507.262 111.575 505.771 112.898C504.28 114.196 502.489 115.218 500.396 115.964C498.304 116.685 495.887 117.046 493.146 117.046ZM497.547 106.441C499.807 106.441 501.803 105.996 503.535 105.106C505.266 104.192 506.625 102.966 507.611 101.427C508.597 99.8874 509.09 98.1439 509.09 96.196V90.3161C508.609 90.6287 507.948 90.9173 507.106 91.1818C506.288 91.4223 505.362 91.6508 504.328 91.8672C503.294 92.0596 502.26 92.24 501.226 92.4083C500.192 92.5526 499.254 92.6849 498.412 92.8051C496.609 93.0696 495.034 93.4905 493.687 94.0677C492.34 94.6448 491.294 95.4264 490.549 96.4124C489.803 97.3743 489.43 98.5768 489.43 100.02C489.43 102.112 490.188 103.711 491.703 104.817C493.242 105.9 495.19 106.441 497.547 106.441ZM584.404 76.3919L570.335 77.2577C570.095 76.0552 569.578 74.973 568.784 74.0111C567.991 73.0251 566.945 72.2435 565.646 71.6664C564.371 71.0651 562.844 70.7645 561.065 70.7645C558.684 70.7645 556.676 71.2696 555.04 72.2796C553.405 73.2656 552.587 74.5883 552.587 76.2476C552.587 77.5703 553.117 78.6886 554.175 79.6024C555.233 80.5163 557.049 81.2497 559.622 81.8029L569.65 83.8229C575.037 84.9292 579.053 86.7088 581.698 89.1617C584.344 91.6147 585.666 94.8372 585.666 98.8293C585.666 102.461 584.596 105.647 582.456 108.389C580.34 111.13 577.43 113.27 573.726 114.81C570.047 116.325 565.802 117.082 560.992 117.082C553.658 117.082 547.814 115.555 543.461 112.501C539.132 109.423 536.595 105.238 535.85 99.9475L550.964 99.1539C551.421 101.39 552.527 103.098 554.283 104.276C556.038 105.431 558.287 106.008 561.029 106.008C563.722 106.008 565.886 105.491 567.522 104.457C569.181 103.399 570.023 102.04 570.047 100.38C570.023 98.9856 569.434 97.8433 568.279 96.9535C567.125 96.0396 565.345 95.3422 562.94 94.8613L553.345 92.9494C547.934 91.8672 543.906 89.9914 541.261 87.322C538.639 84.6526 537.329 81.2497 537.329 77.1134C537.329 73.5542 538.291 70.488 540.214 67.9148C542.162 65.3416 544.892 63.3576 548.403 61.9627C551.938 60.5679 556.075 59.8705 560.812 59.8705C567.81 59.8705 573.317 61.3495 577.334 64.3075C581.374 67.2655 583.73 71.2936 584.404 76.3919ZM620.392 55.0007V42.1226H681.066V55.0007H658.449V116H643.009V55.0007H620.392ZM687.048 116V60.592H701.946V70.2595H702.523C703.533 66.8206 705.229 64.2233 707.61 62.4678C709.99 60.6882 712.732 59.7984 715.834 59.7984C716.604 59.7984 717.433 59.8465 718.323 59.9426C719.213 60.0388 719.995 60.1711 720.668 60.3395V73.975C719.946 73.7586 718.948 73.5662 717.674 73.3979C716.399 73.2295 715.233 73.1453 714.175 73.1453C711.914 73.1453 709.894 73.6383 708.115 74.6243C706.359 75.5863 704.964 76.933 703.93 78.6645C702.92 80.396 702.415 82.392 702.415 84.6526V116H687.048ZM730.645 116V60.592H746.012V116H730.645ZM738.364 53.4495C736.08 53.4495 734.12 52.692 732.484 51.1769C730.873 49.6378 730.067 47.7981 730.067 45.6578C730.067 43.5415 730.873 41.7258 732.484 40.2108C734.12 38.6716 736.08 37.9021 738.364 37.9021C740.649 37.9021 742.597 38.6716 744.208 40.2108C745.843 41.7258 746.661 43.5415 746.661 45.6578C746.661 47.7981 745.843 49.6378 744.208 51.1769C742.597 52.692 740.649 53.4495 738.364 53.4495ZM786.184 42.1226H805.447L825.792 91.759H826.658L847.003 42.1226H866.266V116H851.115V67.9148H850.502L831.383 115.639H821.066L801.948 67.7344H801.335V116H786.184V42.1226ZM916.41 92.4083V60.592H931.777V116H917.023V105.936H916.446C915.195 109.182 913.115 111.791 910.205 113.763C907.319 115.735 903.796 116.721 899.636 116.721C895.932 116.721 892.674 115.88 889.86 114.196C887.046 112.513 884.846 110.12 883.259 107.018C881.696 103.916 880.902 100.2 880.878 95.8713V60.592H896.245V93.1298C896.269 96.4004 897.147 98.9856 898.878 100.885C900.61 102.785 902.931 103.735 905.84 103.735C907.692 103.735 909.424 103.314 911.035 102.473C912.646 101.607 913.945 100.332 914.931 98.6489C915.941 96.9655 916.434 94.8853 916.41 92.4083ZM992.202 76.3919L978.133 77.2577C977.893 76.0552 977.376 74.973 976.582 74.0111C975.788 73.0251 974.742 72.2435 973.444 71.6664C972.169 71.0651 970.642 70.7645 968.862 70.7645C966.482 70.7645 964.473 71.2696 962.838 72.2796C961.203 73.2656 960.385 74.5883 960.385 76.2476C960.385 77.5703 960.914 78.6886 961.972 79.6024C963.031 80.5163 964.846 81.2497 967.419 81.8029L977.448 83.8229C982.835 84.9292 986.851 86.7088 989.496 89.1617C992.141 91.6147 993.464 94.8372 993.464 98.8293C993.464 102.461 992.394 105.647 990.254 108.389C988.137 111.13 985.227 113.27 981.524 114.81C977.844 116.325 973.6 117.082 968.79 117.082C961.455 117.082 955.612 115.555 951.259 112.501C946.93 109.423 944.393 105.238 943.647 99.9475L958.762 99.1539C959.219 101.39 960.325 103.098 962.081 104.276C963.836 105.431 966.085 106.008 968.826 106.008C971.52 106.008 973.684 105.491 975.319 104.457C976.979 103.399 977.82 102.04 977.844 100.38C977.82 98.9856 977.231 97.8433 976.077 96.9535C974.923 96.0396 973.143 95.3422 970.738 94.8613L961.143 92.9494C955.732 91.8672 951.704 89.9914 949.058 87.322C946.437 84.6526 945.126 81.2497 945.126 77.1134C945.126 73.5542 946.088 70.488 948.012 67.9148C949.96 65.3416 952.69 63.3576 956.201 61.9627C959.736 60.5679 963.872 59.8705 968.61 59.8705C975.608 59.8705 981.115 61.3495 985.131 64.3075C989.171 67.2655 991.528 71.2936 992.202 76.3919ZM1034.64 60.592V72.1353H1001.28V60.592H1034.64ZM1008.85 47.3171H1024.22V98.9736C1024.22 100.392 1024.44 101.499 1024.87 102.292C1025.3 103.062 1025.9 103.603 1026.67 103.916C1027.47 104.228 1028.38 104.385 1029.41 104.385C1030.13 104.385 1030.86 104.324 1031.58 104.204C1032.3 104.06 1032.85 103.952 1033.24 103.879L1035.65 115.315C1034.88 115.555 1033.8 115.832 1032.41 116.144C1031.01 116.481 1029.32 116.685 1027.32 116.758C1023.62 116.902 1020.37 116.409 1017.58 115.279C1014.82 114.148 1012.66 112.393 1011.12 110.012C1009.59 107.631 1008.83 104.625 1008.85 100.994V47.3171ZM1062.49 117.046C1058.95 117.046 1055.8 116.433 1053.03 115.206C1050.27 113.956 1048.08 112.116 1046.47 109.687C1044.88 107.234 1044.09 104.18 1044.09 100.525C1044.09 97.4465 1044.65 94.8613 1045.78 92.769C1046.91 90.6768 1048.45 88.9934 1050.4 87.7188C1052.35 86.4442 1054.56 85.4823 1057.04 84.833C1059.54 84.1837 1062.16 83.7267 1064.9 83.4622C1068.13 83.1255 1070.72 82.8129 1072.69 82.5243C1074.67 82.2117 1076.1 81.7548 1076.99 81.1535C1077.88 80.5523 1078.32 79.6625 1078.32 78.4841V78.2677C1078.32 75.9831 1077.6 74.2155 1076.16 72.965C1074.74 71.7145 1072.72 71.0892 1070.1 71.0892C1067.33 71.0892 1065.13 71.7024 1063.5 72.9289C1061.86 74.1313 1060.78 75.6464 1060.25 77.4741L1046.04 76.3198C1046.76 72.953 1048.18 70.0431 1050.29 67.5901C1052.41 65.1131 1055.14 63.2133 1058.48 61.8906C1061.85 60.5439 1065.74 59.8705 1070.17 59.8705C1073.25 59.8705 1076.19 60.2312 1079.01 60.9527C1081.84 61.6742 1084.36 62.7924 1086.55 64.3075C1088.76 65.8225 1090.5 67.7705 1091.78 70.1513C1093.05 72.5081 1093.69 75.3338 1093.69 78.6284V116H1079.12V108.316H1078.68C1077.79 110.048 1076.6 111.575 1075.11 112.898C1073.62 114.196 1071.83 115.218 1069.74 115.964C1067.64 116.685 1065.23 117.046 1062.49 117.046ZM1066.89 106.441C1069.15 106.441 1071.14 105.996 1072.87 105.106C1074.61 104.192 1075.96 102.966 1076.95 101.427C1077.94 99.8874 1078.43 98.1439 1078.43 96.196V90.3161C1077.95 90.6287 1077.29 90.9173 1076.45 91.1818C1075.63 91.4223 1074.7 91.6508 1073.67 91.8672C1072.63 92.0596 1071.6 92.24 1070.57 92.4083C1069.53 92.5526 1068.59 92.6849 1067.75 92.8051C1065.95 93.0696 1064.37 93.4905 1063.03 94.0677C1061.68 94.6448 1060.63 95.4264 1059.89 96.4124C1059.14 97.3743 1058.77 98.5768 1058.77 100.02C1058.77 102.112 1059.53 103.711 1061.04 104.817C1062.58 105.9 1064.53 106.441 1066.89 106.441ZM1121.57 100.056L1121.6 81.6225H1123.84L1141.59 60.592H1159.23L1135.38 88.4403H1131.74L1121.57 100.056ZM1107.64 116V42.1226H1123.01V116H1107.64ZM1142.27 116L1125.97 91.8672L1136.21 81.0092L1160.27 116H1142.27ZM1168.8 116V60.592H1184.16V116H1168.8ZM1176.52 53.4495C1174.23 53.4495 1172.27 52.692 1170.64 51.1769C1169.03 49.6378 1168.22 47.7981 1168.22 45.6578C1168.22 43.5415 1169.03 41.7258 1170.64 40.2108C1172.27 38.6716 1174.23 37.9021 1176.52 37.9021C1178.8 37.9021 1180.75 38.6716 1182.36 40.2108C1184 41.7258 1184.81 43.5415 1184.81 45.6578C1184.81 47.7981 1184 49.6378 1182.36 51.1769C1180.75 52.692 1178.8 53.4495 1176.52 53.4495ZM1198.51 116V60.592H1213.15V70.3677H1213.8C1214.96 67.1212 1216.88 64.56 1219.57 62.6842C1222.27 60.8084 1225.49 59.8705 1229.24 59.8705C1233.04 59.8705 1236.27 60.8204 1238.94 62.7203C1241.61 64.5961 1243.39 67.1452 1244.28 70.3677H1244.86C1245.99 67.1933 1248.03 64.6562 1250.99 62.7563C1253.97 60.8325 1257.5 59.8705 1261.56 59.8705C1266.73 59.8705 1270.93 61.5178 1274.15 64.8125C1277.4 68.0831 1279.02 72.7245 1279.02 78.7367V116H1263.69V81.7668C1263.69 78.6886 1262.87 76.3799 1261.24 74.8408C1259.6 73.3017 1257.56 72.5321 1255.1 72.5321C1252.32 72.5321 1250.14 73.4219 1248.58 75.2015C1247.01 76.9571 1246.23 79.2777 1246.23 82.1636V116H1231.33V81.4421C1231.33 78.7246 1230.55 76.5603 1228.99 74.949C1227.45 73.3377 1225.42 72.5321 1222.89 72.5321C1221.18 72.5321 1219.65 72.965 1218.27 73.8307C1216.93 74.6724 1215.86 75.8628 1215.06 77.402C1214.27 78.917 1213.87 80.6966 1213.87 82.7407V116H1198.51Z" fill="white"/>
<path d="M291.589 192.878C287.949 192.878 284.86 192.074 282.32 190.466C279.781 188.857 277.842 186.622 276.505 183.761C275.184 180.9 274.524 177.59 274.524 173.832C274.524 170.073 275.184 166.763 276.505 163.902C277.842 161.041 279.781 158.806 282.32 157.198C284.86 155.589 287.949 154.785 291.589 154.785C295.822 154.785 299.301 155.86 302.027 158.01C304.77 160.16 306.657 163.055 307.69 166.695L303.093 167.914C302.349 165.189 301.02 163.039 299.106 161.464C297.193 159.89 294.688 159.102 291.589 159.102C288.864 159.102 286.595 159.72 284.783 160.956C282.972 162.192 281.609 163.919 280.695 166.137C279.781 168.338 279.315 170.903 279.298 173.832C279.281 176.744 279.73 179.308 280.644 181.526C281.558 183.727 282.93 185.454 284.758 186.707C286.587 187.943 288.864 188.561 291.589 188.561C294.688 188.561 297.193 187.774 299.106 186.199C301.02 184.608 302.349 182.458 303.093 179.749L307.69 180.968C306.657 184.591 304.77 187.486 302.027 189.653C299.301 191.803 295.822 192.878 291.589 192.878ZM340.687 192.878C337.961 192.878 335.607 192.26 333.627 191.024C331.663 189.788 330.147 188.078 329.081 185.894C328.014 183.71 327.481 181.205 327.481 178.377C327.481 175.499 328.023 172.977 329.106 170.81C330.19 168.642 331.722 166.958 333.703 165.756C335.684 164.537 338.012 163.927 340.687 163.927C343.429 163.927 345.791 164.545 347.772 165.781C349.753 167 351.268 168.702 352.318 170.886C353.384 173.053 353.918 175.55 353.918 178.377C353.918 181.239 353.384 183.761 352.318 185.945C351.251 188.112 349.727 189.814 347.746 191.05C345.766 192.269 343.412 192.878 340.687 192.878ZM340.687 188.586C343.531 188.586 345.647 187.638 347.035 185.742C348.424 183.846 349.118 181.391 349.118 178.377C349.118 175.279 348.415 172.816 347.01 170.987C345.605 169.142 343.497 168.219 340.687 168.219C338.773 168.219 337.199 168.651 335.963 169.514C334.727 170.378 333.804 171.571 333.195 173.095C332.585 174.619 332.281 176.38 332.281 178.377C332.281 181.459 332.992 183.93 334.414 185.793C335.836 187.655 337.927 188.586 340.687 188.586ZM408.039 192.116L408.065 174.568C408.065 172.519 407.515 170.92 406.414 169.768C405.331 168.6 403.917 168.016 402.173 168.016C401.157 168.016 400.192 168.253 399.278 168.727C398.364 169.184 397.619 169.912 397.043 170.911C396.468 171.893 396.18 173.154 396.18 174.695L393.793 173.73C393.759 171.783 394.157 170.082 394.986 168.626C395.833 167.153 396.984 166.01 398.44 165.197C399.896 164.384 401.538 163.978 403.367 163.978C406.228 163.978 408.48 164.85 410.122 166.594C411.764 168.321 412.585 170.649 412.585 173.578L412.56 192.116H408.039ZM375.229 192.116V164.689H379.266V172.028H379.774V192.116H375.229ZM391.659 192.116L391.685 174.746C391.685 172.646 391.143 171.004 390.059 169.819C388.976 168.617 387.537 168.016 385.742 168.016C383.965 168.016 382.526 168.626 381.425 169.844C380.325 171.063 379.774 172.68 379.774 174.695L377.387 173.273C377.387 171.495 377.81 169.904 378.657 168.499C379.503 167.093 380.655 165.993 382.111 165.197C383.567 164.384 385.217 163.978 387.063 163.978C388.908 163.978 390.517 164.368 391.888 165.146C393.259 165.925 394.317 167.043 395.062 168.499C395.807 169.938 396.18 171.656 396.18 173.654L396.154 192.116H391.659ZM447.541 192.878C444.968 192.878 442.801 192.243 441.04 190.973C439.279 189.687 437.942 187.951 437.027 185.767C436.13 183.566 435.681 181.103 435.681 178.377C435.681 175.618 436.13 173.146 437.027 170.962C437.942 168.778 439.279 167.059 441.04 165.807C442.818 164.554 444.993 163.927 447.566 163.927C450.106 163.927 452.29 164.562 454.118 165.832C455.964 167.085 457.378 168.803 458.359 170.987C459.341 173.171 459.832 175.635 459.832 178.377C459.832 181.12 459.341 183.583 458.359 185.767C457.378 187.951 455.964 189.687 454.118 190.973C452.29 192.243 450.098 192.878 447.541 192.878ZM434.92 204.306V164.689H438.957V184.879H439.465V204.306H434.92ZM446.982 188.739C448.794 188.739 450.292 188.282 451.477 187.367C452.662 186.453 453.551 185.217 454.144 183.66C454.736 182.085 455.033 180.324 455.033 178.377C455.033 176.447 454.736 174.703 454.144 173.146C453.568 171.588 452.671 170.352 451.452 169.438C450.25 168.524 448.718 168.067 446.855 168.067C445.078 168.067 443.605 168.507 442.437 169.387C441.268 170.251 440.396 171.461 439.821 173.019C439.245 174.56 438.957 176.346 438.957 178.377C438.957 180.375 439.237 182.161 439.795 183.736C440.371 185.293 441.251 186.521 442.437 187.418C443.622 188.298 445.137 188.739 446.982 188.739ZM491.557 192.827C489.796 192.827 488.281 192.548 487.011 191.989C485.758 191.431 484.717 190.686 483.887 189.754C483.058 188.823 482.406 187.791 481.932 186.656C481.458 185.522 481.119 184.362 480.916 183.177C480.73 181.992 480.637 180.883 480.637 179.85V164.689H485.208V178.428C485.208 179.715 485.326 180.959 485.563 182.161C485.8 183.363 486.198 184.447 486.757 185.412C487.333 186.377 488.095 187.139 489.043 187.697C490.008 188.256 491.21 188.535 492.649 188.535C493.783 188.535 494.816 188.341 495.747 187.951C496.678 187.562 497.474 186.986 498.134 186.224C498.794 185.446 499.302 184.464 499.658 183.279C500.013 182.094 500.191 180.714 500.191 179.139L503.162 180.053C503.162 182.695 502.68 184.972 501.715 186.885C500.767 188.798 499.421 190.271 497.677 191.304C495.95 192.319 493.91 192.827 491.557 192.827ZM500.699 192.116V184.777H500.191V164.689H504.737V192.116H500.699ZM542.906 192.116C541.28 192.438 539.672 192.565 538.081 192.497C536.506 192.446 535.101 192.133 533.865 191.558C532.629 190.965 531.689 190.051 531.046 188.815C530.504 187.731 530.208 186.639 530.157 185.539C530.123 184.421 530.106 183.16 530.106 181.755V157.071H534.627V181.552C534.627 182.669 534.635 183.626 534.652 184.421C534.686 185.217 534.864 185.903 535.186 186.478C535.795 187.562 536.76 188.197 538.081 188.383C539.418 188.569 541.026 188.519 542.906 188.231V192.116ZM524.545 168.422V164.689H542.906V168.422H524.545ZM574.963 192.878C572.271 192.878 569.918 192.286 567.903 191.1C565.906 189.898 564.348 188.231 563.231 186.098C562.113 183.947 561.555 181.442 561.555 178.58C561.555 175.584 562.105 172.994 563.205 170.81C564.306 168.609 565.838 166.916 567.802 165.73C569.783 164.528 572.102 163.927 574.76 163.927C577.52 163.927 579.865 164.562 581.795 165.832C583.742 167.102 585.198 168.913 586.163 171.267C587.145 173.62 587.568 176.422 587.433 179.672H582.861V178.047C582.811 174.678 582.125 172.164 580.804 170.505C579.484 168.829 577.52 167.991 574.913 167.991C572.119 167.991 569.994 168.888 568.538 170.683C567.082 172.477 566.354 175.051 566.354 178.403C566.354 181.636 567.082 184.142 568.538 185.92C569.994 187.697 572.068 188.586 574.76 188.586C576.572 188.586 578.146 188.171 579.484 187.342C580.821 186.512 581.871 185.319 582.633 183.761L586.975 185.259C585.909 187.68 584.3 189.56 582.15 190.897C580.017 192.218 577.621 192.878 574.963 192.878ZM564.831 179.672V176.041H585.096V179.672H564.831ZM608.832 192.116V164.689H612.87V171.317L612.209 170.454C612.531 169.607 612.946 168.829 613.454 168.118C613.978 167.407 614.563 166.822 615.206 166.365C615.917 165.79 616.721 165.35 617.618 165.045C618.516 164.74 619.43 164.562 620.361 164.511C621.292 164.444 622.164 164.503 622.977 164.689V168.93C622.029 168.676 620.988 168.609 619.853 168.727C618.719 168.846 617.669 169.26 616.704 169.971C615.824 170.598 615.138 171.36 614.647 172.257C614.173 173.154 613.843 174.128 613.657 175.178C613.471 176.21 613.377 177.268 613.377 178.352V192.116H608.832ZM682.414 192.878C679.824 192.878 677.488 192.438 675.405 191.558C673.34 190.677 671.63 189.424 670.275 187.799C668.938 186.157 668.066 184.218 667.66 181.983L672.332 181.247C672.925 183.55 674.152 185.353 676.015 186.656C677.894 187.943 680.103 188.586 682.643 188.586C684.285 188.586 685.766 188.332 687.087 187.824C688.425 187.3 689.483 186.555 690.261 185.59C691.04 184.625 691.43 183.482 691.43 182.161C691.43 181.349 691.286 180.654 690.998 180.079C690.727 179.486 690.346 178.987 689.855 178.58C689.381 178.157 688.839 177.802 688.23 177.514C687.62 177.226 686.985 176.989 686.325 176.803L677.005 174.035C675.989 173.73 675.007 173.349 674.059 172.892C673.111 172.418 672.265 171.834 671.52 171.14C670.775 170.429 670.182 169.582 669.742 168.6C669.302 167.601 669.082 166.425 669.082 165.07C669.082 162.903 669.64 161.058 670.758 159.534C671.892 157.993 673.424 156.817 675.354 156.004C677.284 155.191 679.46 154.794 681.881 154.81C684.336 154.827 686.528 155.268 688.458 156.131C690.405 156.978 692.014 158.196 693.284 159.788C694.57 161.379 695.434 163.284 695.874 165.502L691.074 166.34C690.82 164.85 690.253 163.572 689.373 162.505C688.509 161.422 687.426 160.592 686.122 160.016C684.818 159.424 683.388 159.119 681.83 159.102C680.34 159.085 678.994 159.322 677.792 159.813C676.59 160.304 675.634 160.99 674.923 161.87C674.212 162.734 673.856 163.733 673.856 164.867C673.856 165.984 674.178 166.89 674.821 167.584C675.464 168.262 676.252 168.803 677.183 169.21C678.131 169.599 679.054 169.921 679.951 170.175L686.909 172.181C687.705 172.401 688.619 172.706 689.652 173.095C690.702 173.484 691.717 174.035 692.699 174.746C693.681 175.44 694.494 176.371 695.137 177.539C695.781 178.691 696.102 180.147 696.102 181.907C696.102 183.668 695.747 185.234 695.036 186.605C694.342 187.977 693.368 189.128 692.115 190.059C690.862 190.973 689.406 191.668 687.747 192.142C686.088 192.633 684.31 192.878 682.414 192.878ZM728.729 192.878C725.953 192.878 723.591 192.26 721.644 191.024C719.714 189.771 718.241 188.053 717.225 185.869C716.21 183.685 715.685 181.196 715.651 178.403C715.685 175.542 716.218 173.027 717.251 170.86C718.3 168.676 719.799 166.975 721.746 165.756C723.693 164.537 726.038 163.927 728.78 163.927C731.675 163.927 734.164 164.638 736.246 166.061C738.346 167.483 739.751 169.43 740.462 171.902L735.993 173.247C735.417 171.656 734.477 170.42 733.174 169.54C731.887 168.659 730.406 168.219 728.729 168.219C726.85 168.219 725.301 168.659 724.082 169.54C722.863 170.403 721.957 171.605 721.365 173.146C720.772 174.67 720.468 176.422 720.451 178.403C720.484 181.45 721.187 183.914 722.558 185.793C723.947 187.655 726.004 188.586 728.729 188.586C730.524 188.586 732.014 188.18 733.199 187.367C734.384 186.538 735.281 185.344 735.891 183.787L740.462 184.98C739.514 187.537 738.033 189.492 736.018 190.846C734.003 192.201 731.574 192.878 728.729 192.878ZM761.154 159.839V155.166H765.675V159.839H761.154ZM761.154 192.116V164.689H765.675V192.116H761.154ZM800.924 192.878C798.233 192.878 795.879 192.286 793.865 191.1C791.867 189.898 790.309 188.231 789.192 186.098C788.074 183.947 787.516 181.442 787.516 178.58C787.516 175.584 788.066 172.994 789.166 170.81C790.267 168.609 791.799 166.916 793.763 165.73C795.744 164.528 798.063 163.927 800.721 163.927C803.481 163.927 805.826 164.562 807.756 165.832C809.703 167.102 811.159 168.913 812.124 171.267C813.106 173.62 813.529 176.422 813.394 179.672H808.822V178.047C808.772 174.678 808.086 172.164 806.765 170.505C805.445 168.829 803.481 167.991 800.874 167.991C798.08 167.991 795.955 168.888 794.499 170.683C793.043 172.477 792.315 175.051 792.315 178.403C792.315 181.636 793.043 184.142 794.499 185.92C795.955 187.697 798.029 188.586 800.721 188.586C802.533 188.586 804.107 188.171 805.445 187.342C806.782 186.512 807.832 185.319 808.594 183.761L812.936 185.259C811.87 187.68 810.261 189.56 808.111 190.897C805.978 192.218 803.582 192.878 800.924 192.878ZM790.792 179.672V176.041H811.057V179.672H790.792ZM853.578 192.116V178.377C853.578 177.074 853.459 175.821 853.222 174.619C853.002 173.417 852.604 172.342 852.029 171.394C851.47 170.429 850.708 169.667 849.743 169.108C848.795 168.549 847.593 168.27 846.137 168.27C845.003 168.27 843.97 168.465 843.039 168.854C842.124 169.227 841.337 169.802 840.677 170.581C840.017 171.36 839.5 172.342 839.128 173.527C838.772 174.695 838.595 176.075 838.595 177.666L835.623 176.752C835.623 174.094 836.097 171.817 837.045 169.921C838.01 168.008 839.356 166.543 841.083 165.527C842.827 164.495 844.876 163.978 847.229 163.978C849.007 163.978 850.522 164.258 851.775 164.816C853.028 165.375 854.069 166.12 854.898 167.051C855.728 167.965 856.38 168.998 856.854 170.149C857.328 171.284 857.658 172.443 857.844 173.628C858.047 174.797 858.149 175.906 858.149 176.955V192.116H853.578ZM834.023 192.116V164.689H838.087V172.028H838.595V192.116H834.023ZM891.803 192.878C889.027 192.878 886.665 192.26 884.718 191.024C882.788 189.771 881.315 188.053 880.299 185.869C879.283 183.685 878.759 181.196 878.725 178.403C878.759 175.542 879.292 173.027 880.325 170.86C881.374 168.676 882.873 166.975 884.82 165.756C886.767 164.537 889.111 163.927 891.854 163.927C894.749 163.927 897.238 164.638 899.32 166.061C901.42 167.483 902.825 169.43 903.536 171.902L899.066 173.247C898.491 171.656 897.551 170.42 896.247 169.54C894.961 168.659 893.479 168.219 891.803 168.219C889.924 168.219 888.375 168.659 887.156 169.54C885.937 170.403 885.031 171.605 884.439 173.146C883.846 174.67 883.541 176.422 883.524 178.403C883.558 181.45 884.261 183.914 885.632 185.793C887.02 187.655 889.078 188.586 891.803 188.586C893.598 188.586 895.088 188.18 896.273 187.367C897.458 186.538 898.355 185.344 898.965 183.787L903.536 184.98C902.588 187.537 901.106 189.492 899.092 190.846C897.077 192.201 894.648 192.878 891.803 192.878ZM935.605 192.878C932.913 192.878 930.56 192.286 928.545 191.1C926.547 189.898 924.99 188.231 923.872 186.098C922.755 183.947 922.196 181.442 922.196 178.58C922.196 175.584 922.747 172.994 923.847 170.81C924.948 168.609 926.48 166.916 928.444 165.73C930.424 164.528 932.744 163.927 935.402 163.927C938.162 163.927 940.506 164.562 942.436 165.832C944.383 167.102 945.839 168.913 946.804 171.267C947.786 173.62 948.21 176.422 948.074 179.672H943.503V178.047C943.452 174.678 942.767 172.164 941.446 170.505C940.125 168.829 938.162 167.991 935.554 167.991C932.761 167.991 930.636 168.888 929.18 170.683C927.724 172.477 926.996 175.051 926.996 178.403C926.996 181.636 927.724 184.142 929.18 185.92C930.636 187.697 932.71 188.586 935.402 188.586C937.213 188.586 938.788 188.171 940.125 187.342C941.463 186.512 942.513 185.319 943.275 183.761L947.617 185.259C946.551 187.68 944.942 189.56 942.792 190.897C940.659 192.218 938.263 192.878 935.605 192.878ZM925.472 179.672V176.041H945.738V179.672H925.472ZM1008.36 192.878C1005.77 192.878 1003.44 192.438 1001.35 191.558C999.289 190.677 997.579 189.424 996.225 187.799C994.887 186.157 994.015 184.218 993.609 181.983L998.282 181.247C998.874 183.55 1000.1 185.353 1001.96 186.656C1003.84 187.943 1006.05 188.586 1008.59 188.586C1010.23 188.586 1011.72 188.332 1013.04 187.824C1014.37 187.3 1015.43 186.555 1016.21 185.59C1016.99 184.625 1017.38 183.482 1017.38 182.161C1017.38 181.349 1017.24 180.654 1016.95 180.079C1016.68 179.486 1016.3 178.987 1015.8 178.58C1015.33 178.157 1014.79 177.802 1014.18 177.514C1013.57 177.226 1012.93 176.989 1012.27 176.803L1002.95 174.035C1001.94 173.73 1000.96 173.349 1000.01 172.892C999.06 172.418 998.214 171.834 997.469 171.14C996.724 170.429 996.132 169.582 995.691 168.6C995.251 167.601 995.031 166.425 995.031 165.07C995.031 162.903 995.59 161.058 996.707 159.534C997.841 157.993 999.374 156.817 1001.3 156.004C1003.23 155.191 1005.41 154.794 1007.83 154.81C1010.29 154.827 1012.48 155.268 1014.41 156.131C1016.35 156.978 1017.96 158.196 1019.23 159.788C1020.52 161.379 1021.38 163.284 1021.82 165.502L1017.02 166.34C1016.77 164.85 1016.2 163.572 1015.32 162.505C1014.46 161.422 1013.37 160.592 1012.07 160.016C1010.77 159.424 1009.34 159.119 1007.78 159.102C1006.29 159.085 1004.94 159.322 1003.74 159.813C1002.54 160.304 1001.58 160.99 1000.87 161.87C1000.16 162.734 999.805 163.733 999.805 164.867C999.805 165.984 1000.13 166.89 1000.77 167.584C1001.41 168.262 1002.2 168.803 1003.13 169.21C1004.08 169.599 1005 169.921 1005.9 170.175L1012.86 172.181C1013.65 172.401 1014.57 172.706 1015.6 173.095C1016.65 173.484 1017.67 174.035 1018.65 174.746C1019.63 175.44 1020.44 176.371 1021.09 177.539C1021.73 178.691 1022.05 180.147 1022.05 181.907C1022.05 183.668 1021.7 185.234 1020.99 186.605C1020.29 187.977 1019.32 189.128 1018.06 190.059C1016.81 190.973 1015.36 191.668 1013.7 192.142C1012.04 192.633 1010.26 192.878 1008.36 192.878ZM1058.44 192.116C1056.81 192.438 1055.2 192.565 1053.61 192.497C1052.04 192.446 1050.63 192.133 1049.4 191.558C1048.16 190.965 1047.22 190.051 1046.58 188.815C1046.04 187.731 1045.74 186.639 1045.69 185.539C1045.65 184.421 1045.64 183.16 1045.64 181.755V157.071H1050.16V181.552C1050.16 182.669 1050.17 183.626 1050.18 184.421C1050.22 185.217 1050.4 185.903 1050.72 186.478C1051.33 187.562 1052.29 188.197 1053.61 188.383C1054.95 188.569 1056.56 188.519 1058.44 188.231V192.116ZM1040.08 168.422V164.689H1058.44V168.422H1040.08ZM1090.16 192.827C1088.4 192.827 1086.89 192.548 1085.62 191.989C1084.36 191.431 1083.32 190.686 1082.49 189.754C1081.66 188.823 1081.01 187.791 1080.54 186.656C1080.06 185.522 1079.73 184.362 1079.52 183.177C1079.34 181.992 1079.24 180.883 1079.24 179.85V164.689H1083.81V178.428C1083.81 179.715 1083.93 180.959 1084.17 182.161C1084.41 183.363 1084.8 184.447 1085.36 185.412C1085.94 186.377 1086.7 187.139 1087.65 187.697C1088.61 188.256 1089.82 188.535 1091.25 188.535C1092.39 188.535 1093.42 188.341 1094.35 187.951C1095.28 187.562 1096.08 186.986 1096.74 186.224C1097.4 185.446 1097.91 184.464 1098.26 183.279C1098.62 182.094 1098.8 180.714 1098.8 179.139L1101.77 180.053C1101.77 182.695 1101.29 184.972 1100.32 186.885C1099.37 188.798 1098.03 190.271 1096.28 191.304C1094.56 192.319 1092.52 192.827 1090.16 192.827ZM1099.31 192.116V184.777H1098.8V164.689H1103.34V192.116H1099.31ZM1136.97 192.878C1134.41 192.878 1132.22 192.243 1130.39 190.973C1128.56 189.687 1127.15 187.951 1126.15 185.767C1125.17 183.583 1124.67 181.12 1124.67 178.377C1124.67 175.635 1125.17 173.171 1126.15 170.987C1127.15 168.803 1128.56 167.085 1130.39 165.832C1132.22 164.562 1134.4 163.927 1136.94 163.927C1139.53 163.927 1141.71 164.554 1143.47 165.807C1145.23 167.059 1146.56 168.778 1147.45 170.962C1148.37 173.146 1148.83 175.618 1148.83 178.377C1148.83 181.103 1148.37 183.566 1147.45 185.767C1146.56 187.951 1145.23 189.687 1143.47 190.973C1141.71 192.243 1139.54 192.878 1136.97 192.878ZM1137.52 188.739C1139.37 188.739 1140.89 188.298 1142.07 187.418C1143.26 186.521 1144.13 185.293 1144.69 183.736C1145.26 182.161 1145.55 180.375 1145.55 178.377C1145.55 176.346 1145.26 174.56 1144.69 173.019C1144.13 171.461 1143.26 170.251 1142.1 169.387C1140.93 168.507 1139.45 168.067 1137.65 168.067C1135.79 168.067 1134.25 168.524 1133.03 169.438C1131.83 170.352 1130.93 171.588 1130.34 173.146C1129.76 174.703 1129.47 176.447 1129.47 178.377C1129.47 180.324 1129.77 182.085 1130.36 183.66C1130.96 185.217 1131.84 186.453 1133.03 187.367C1134.23 188.282 1135.73 188.739 1137.52 188.739ZM1145.55 192.116V171.927H1145.04V155.547H1149.59V192.116H1145.55ZM1184.33 192.878C1181.64 192.878 1179.29 192.286 1177.27 191.1C1175.28 189.898 1173.72 188.231 1172.6 186.098C1171.48 183.947 1170.92 181.442 1170.92 178.58C1170.92 175.584 1171.47 172.994 1172.57 170.81C1173.68 168.609 1175.21 166.916 1177.17 165.73C1179.15 164.528 1181.47 163.927 1184.13 163.927C1186.89 163.927 1189.23 164.562 1191.16 165.832C1193.11 167.102 1194.57 168.913 1195.53 171.267C1196.51 173.62 1196.94 176.422 1196.8 179.672H1192.23V178.047C1192.18 174.678 1191.49 172.164 1190.17 170.505C1188.85 168.829 1186.89 167.991 1184.28 167.991C1181.49 167.991 1179.36 168.888 1177.91 170.683C1176.45 172.477 1175.72 175.051 1175.72 178.403C1175.72 181.636 1176.45 184.142 1177.91 185.92C1179.36 187.697 1181.44 188.586 1184.13 188.586C1185.94 188.586 1187.52 188.171 1188.85 187.342C1190.19 186.512 1191.24 185.319 1192 183.761L1196.34 185.259C1195.28 187.68 1193.67 189.56 1191.52 190.897C1189.39 192.218 1186.99 192.878 1184.33 192.878ZM1174.2 179.672V176.041H1194.47V179.672H1174.2ZM1236.99 192.116V178.377C1236.99 177.074 1236.87 175.821 1236.63 174.619C1236.41 173.417 1236.01 172.342 1235.44 171.394C1234.88 170.429 1234.12 169.667 1233.15 169.108C1232.2 168.549 1231 168.27 1229.55 168.27C1228.41 168.27 1227.38 168.465 1226.45 168.854C1225.53 169.227 1224.75 169.802 1224.09 170.581C1223.42 171.36 1222.91 172.342 1222.54 173.527C1222.18 174.695 1222 176.075 1222 177.666L1219.03 176.752C1219.03 174.094 1219.51 171.817 1220.45 169.921C1221.42 168.008 1222.76 166.543 1224.49 165.527C1226.24 164.495 1228.28 163.978 1230.64 163.978C1232.41 163.978 1233.93 164.258 1235.18 164.816C1236.44 165.375 1237.48 166.12 1238.31 167.051C1239.14 167.965 1239.79 168.998 1240.26 170.149C1240.74 171.284 1241.07 172.443 1241.25 173.628C1241.46 174.797 1241.56 175.906 1241.56 176.955V192.116H1236.99ZM1217.43 192.116V164.689H1221.49V172.028H1222V192.116H1217.43ZM1279.22 192.116C1277.59 192.438 1275.98 192.565 1274.39 192.497C1272.82 192.446 1271.41 192.133 1270.18 191.558C1268.94 190.965 1268 190.051 1267.36 188.815C1266.82 187.731 1266.52 186.639 1266.47 185.539C1266.44 184.421 1266.42 183.16 1266.42 181.755V157.071H1270.94V181.552C1270.94 182.669 1270.95 183.626 1270.96 184.421C1271 185.217 1271.18 185.903 1271.5 186.478C1272.11 187.562 1273.07 188.197 1274.39 188.383C1275.73 188.569 1277.34 188.519 1279.22 188.231V192.116ZM1260.86 168.422V164.689H1279.22V168.422H1260.86Z" fill="white"/>
<circle cx="115.337" cy="117.453" r="106.872" stroke="white" stroke-width="16.9302"/>
<path d="M117.55 164.977H82.6311V66.4736H117.838C127.746 66.4736 136.276 68.4456 143.426 72.3896C150.577 76.3015 156.076 81.9289 159.923 89.2717C163.803 96.6146 165.743 105.4 165.743 115.629C165.743 125.89 163.803 134.708 159.923 142.083C156.076 149.457 150.544 155.117 143.33 159.061C136.147 163.005 127.554 164.977 117.55 164.977ZM103.457 147.133H116.684C122.84 147.133 128.019 146.043 132.219 143.862C136.452 141.65 139.626 138.235 141.743 133.617C143.891 128.968 144.965 122.972 144.965 115.629C144.965 108.35 143.891 102.402 141.743 97.7849C139.626 93.1676 136.468 89.7687 132.268 87.5883C128.067 85.4079 122.889 84.3177 116.732 84.3177H103.457V147.133Z" fill="white"/>
</svg>
